# xmcd
#
# Track frame offsets: 
#        150
#        27068
#        57412
#        70410
#        86540
#        110226
#        123222
#        149648
#        166418
#        181282
#        201124
#        228653
#        247097
#        268396
#        283044
#        309177
#        325090
#
# Disc length: 4784 seconds
#
# Revision: 2
# Processed by: cddbd v1.5.2PL0 Copyright (c) Steve Scherf et al.
# Submitted via: ExactAudioCopy v1.3
#
DISCID=0412ae11
DTITLE=Various Artist - Akella Present - vol.44 -  Rockin' Blues  CD1
DYEAR=2014
DGENRE=Rockin' Blues
TTITLE0=Dr. Wu' and Friends - Need a Witness
TTITLE1=Blues Merchants - Getting Used
TTITLE2=The Buddaheads - Blues Power
TTITLE3=Turning Blue - You Make Me Feel
TTITLE4=Mark May Band - Move On
TTITLE5=The Gentlemen's Blues Club - Dust Broom
TTITLE6=Dan Patlansky - Jump On
TTITLE7=Vargas Blues Band - Hot Wires
TTITLE8=John Lawton - Big Fat Money
TTITLE9=JP Stingray - Bluesbrothers For Life
TTITLE10=Johnny Lennartsson - The Train Is Coming
TTITLE11=Jeff Strahan - Amen To The Blues
TTITLE12=Paul Black - Piece by Piece
TTITLE13=Motor City Josh - 300 Lbs of Joy
TTITLE14=Eight Ball Down - It`s Alright
TTITLE15=Keith Scott - Mean Mistreater
TTITLE16=Bobby Messano - More Then Meets The Eye
EXTD=
EXTT0=
EXTT1=
EXTT2=
EXTT3=
EXTT4=
EXTT5=
EXTT6=
EXTT7=
EXTT8=
EXTT9=
EXTT10=
EXTT11=
EXTT12=
EXTT13=
EXTT14=
EXTT15=
EXTT16=
PLAYORDER=
